<svg width="26" height="33" viewBox="0 0 26 33" fill="none" xmlns="http://www.w3.org/2000/svg">
<path d="M21.7373 17.4109C21.7225 14.7879 22.8718 12.8111 25.1928 11.3534C23.8947 9.43042 21.9308 8.37277 19.3419 8.16893C16.8907 7.96894 14.2089 9.6458 13.2269 9.6458C12.1891 9.6458 9.81602 8.23816 7.94878 8.23816C4.09528 8.2997 0 11.415 0 17.7532C0 19.6262 0.331044 21.5607 0.993133 23.553C1.8784 26.1759 5.06981 32.6026 8.39886 32.4988C10.1396 32.4564 11.3708 31.2219 13.6361 31.2219C15.8343 31.2219 16.9725 32.4988 18.9142 32.4988C22.273 32.4488 25.1594 26.6067 26 23.976C21.4956 21.7799 21.7373 17.5455 21.7373 17.4109ZM17.828 5.68057C19.7139 3.36527 19.5428 1.25766 19.487 0.5C17.8206 0.599996 15.8938 1.67303 14.7966 2.99221C13.5877 4.40754 12.8773 6.15747 13.0298 8.13047C14.83 8.27277 16.4741 7.31512 17.828 5.68057Z" fill="#353535"/>
</svg>
