<svg width="18" height="15" viewBox="0 0 18 15" fill="none" xmlns="http://www.w3.org/2000/svg">
<path d="M17.2931 6.67715C17.6924 6.73213 18.0002 7.07953 18.0002 7.49989C18.0002 7.95846 17.6339 8.33021 17.1821 8.33021H2.80031L7.99555 13.5813L8.07496 13.6743C8.31328 13.9989 8.28782 14.4602 7.99795 14.7556C7.67909 15.0805 7.16105 15.0816 6.84086 14.758L0.252504 8.09955C0.213285 8.06142 0.177799 8.01937 0.14666 7.97401C-0.0763912 7.64976 -0.0449715 7.19994 0.240913 6.91106L6.84091 0.241932L6.93285 0.161737C7.25366 -0.0787469 7.70815 -0.050955 7.99799 0.244461C8.31682 0.569419 8.31571 1.09515 7.9955 1.41871L2.79902 6.66957H17.1821L17.2931 6.67715Z" fill="#F7F7F7"/>
</svg>
