<svg width="40" height="40" viewBox="0 0 40 40" fill="none" xmlns="http://www.w3.org/2000/svg">
<path d="M5.99994 9.00003C5.99994 8.20438 6.31601 7.44132 6.87862 6.87871C7.44123 6.3161 8.20429 6.00003 8.99994 6.00003H30.9999C31.7956 6.00003 32.5586 6.3161 33.1213 6.87871C33.6839 7.44132 33.9999 8.20438 33.9999 9.00003V23C33.9999 23.7957 33.6839 24.5587 33.1213 25.1214C32.5586 25.684 31.7956 26 30.9999 26H19.9999V24H30.9999C31.2652 24 31.5195 23.8947 31.707 23.7071C31.8946 23.5196 31.9999 23.2652 31.9999 23V9.00003C31.9999 8.73481 31.8946 8.48046 31.707 8.29292C31.5195 8.10539 31.2652 8.00003 30.9999 8.00003H8.99994C8.73472 8.00003 8.48037 8.10539 8.29283 8.29292C8.1053 8.48046 7.99994 8.73481 7.99994 9.00003V12H5.99994V9.00003ZM19.9999 30H34.9999C35.2652 30 35.5195 29.8947 35.707 29.7071C35.8946 29.5196 35.9999 29.2652 35.9999 29C35.9999 28.7348 35.8946 28.4805 35.707 28.2929C35.5195 28.1054 35.2652 28 34.9999 28H19.9999V30ZM9.99994 30C9.73472 30 9.48037 30.1054 9.29283 30.2929C9.1053 30.4805 8.99994 30.7348 8.99994 31C8.99994 31.2652 9.1053 31.5196 9.29283 31.7071C9.48037 31.8947 9.73472 32 9.99994 32H11.9999C12.2652 32 12.5195 31.8947 12.707 31.7071C12.8946 31.5196 12.9999 31.2652 12.9999 31C12.9999 30.7348 12.8946 30.4805 12.707 30.2929C12.5195 30.1054 12.2652 30 11.9999 30H9.99994ZM3.99994 17C3.99994 16.2044 4.31601 15.4413 4.87862 14.8787C5.44123 14.3161 6.20429 14 6.99994 14H14.9999C15.7956 14 16.5587 14.3161 17.1213 14.8787C17.6839 15.4413 17.9999 16.2044 17.9999 17V33C17.9999 33.7957 17.6839 34.5587 17.1213 35.1213C16.5587 35.684 15.7956 36 14.9999 36H6.99994C6.20429 36 5.44123 35.684 4.87862 35.1213C4.31601 34.5587 3.99994 33.7957 3.99994 33V17ZM6.99994 16C6.73472 16 6.48037 16.1054 6.29283 16.2929C6.1053 16.4805 5.99994 16.7348 5.99994 17V33C5.99994 33.2652 6.1053 33.5196 6.29283 33.7071C6.48037 33.8947 6.73472 34 6.99994 34H14.9999C15.2652 34 15.5195 33.8947 15.707 33.7071C15.8946 33.5196 15.9999 33.2652 15.9999 33V17C15.9999 16.7348 15.8946 16.4805 15.707 16.2929C15.5195 16.1054 15.2652 16 14.9999 16H6.99994Z" fill="#353535"/>
</svg>
