<svg width="25" height="23" viewBox="0 0 25 23" fill="none" xmlns="http://www.w3.org/2000/svg">
<path d="M23.1492 0.00229924C22.8405 0.0247618 22.5374 0.0971945 22.2519 0.216771H22.248C21.9739 0.32545 20.6707 0.873653 18.6895 1.70461L11.5898 4.69472C6.49537 6.83945 1.48749 8.95147 1.48749 8.95147L1.54712 8.92839C1.54712 8.92839 1.20184 9.04188 0.841184 9.28905C0.618371 9.43083 0.42664 9.61635 0.277593 9.83437C0.100629 10.094 -0.0417111 10.4912 0.0111857 10.9019C0.097744 11.5963 0.547847 12.0128 0.870998 12.2426C1.198 12.4754 1.50961 12.584 1.50961 12.584H1.5173L6.21357 14.1661C6.4242 14.8422 7.64467 18.8547 7.93801 19.779C8.11112 20.331 8.27943 20.6763 8.49006 20.9398C8.592 21.0744 8.71126 21.187 8.85456 21.2774C8.92906 21.3207 9.00849 21.3549 9.09116 21.3793L9.04307 21.3678C9.05749 21.3716 9.06904 21.3832 9.07961 21.387C9.11809 21.3976 9.14405 21.4014 9.1931 21.4091C9.93654 21.6342 10.5338 21.1725 10.5338 21.1725L10.5675 21.1456L13.3402 18.621L17.9874 22.1862L18.0932 22.2314C19.0617 22.6565 20.0427 22.42 20.5611 22.0025C21.0833 21.5823 21.2863 21.0446 21.2863 21.0446L21.3199 20.9581L24.9111 2.56058C25.0131 2.10663 25.0391 1.68153 24.9265 1.26894C24.8105 0.851365 24.5426 0.492226 24.1754 0.261974C23.8671 0.0745416 23.5096 -0.0159275 23.1492 0.00229924ZM23.0521 1.97391C23.0482 2.0345 23.0597 2.02776 23.0328 2.14414V2.15472L19.4753 20.3608C19.4599 20.3868 19.4339 20.4435 19.3627 20.5003C19.2877 20.5599 19.2281 20.5974 18.9155 20.4734L13.2315 16.1156L9.79805 19.2452L10.5194 14.6384L19.8061 5.98252C20.1889 5.62667 20.061 5.55165 20.061 5.55165C20.0879 5.11501 19.483 5.42374 19.483 5.42374L7.77258 12.6783L7.76874 12.6591L2.15591 10.7692V10.7653L2.14148 10.7625C2.15132 10.7592 2.16096 10.7553 2.17034 10.7509L2.20111 10.7355L2.23093 10.725C2.23093 10.725 7.24265 8.61293 12.3371 6.46821C14.8877 5.39392 17.4575 4.31194 19.4339 3.47714C20.6061 2.98376 21.7794 2.49326 22.954 2.00564C23.0328 1.97487 22.9953 1.97487 23.0521 1.97487V1.97391Z" fill="#353535"/>
</svg>
