<svg width="25" height="25" viewBox="0 0 25 25" fill="none" xmlns="http://www.w3.org/2000/svg">
<path d="M18.1221 14.9524C17.818 14.7961 16.303 14.054 16.0212 13.9535C15.7394 13.8475 15.5329 13.7973 15.3292 14.1098C15.1227 14.4195 14.5368 15.1086 14.3527 15.3179C14.1741 15.5244 13.9927 15.5495 13.6886 15.396C11.8806 14.492 10.6948 13.7833 9.50339 11.7381C9.1881 11.1941 9.81867 11.2331 10.4074 10.0585C10.5078 9.852 10.4576 9.67622 10.3795 9.51997C10.3014 9.36372 9.68754 7.85146 9.43084 7.23484C9.18252 6.63496 8.92583 6.71867 8.73889 6.7075C8.56032 6.69634 8.35664 6.69634 8.15017 6.69634C7.9437 6.69634 7.61167 6.77447 7.32987 7.07859C7.04806 7.3883 6.25287 8.13327 6.25287 9.64553C6.25287 11.1578 7.35498 12.6226 7.50564 12.8291C7.66189 13.0356 9.67359 16.1382 12.7623 17.4747C14.7154 18.3173 15.4799 18.3898 16.4564 18.2447C17.0507 18.1555 18.2756 17.5026 18.5295 16.7799C18.7834 16.0601 18.7834 15.4434 18.7081 15.3151C18.6327 15.1784 18.4263 15.1003 18.1221 14.9524Z" fill="#353535"/>
<path d="M24.0289 7.65615C23.3983 6.15785 22.4943 4.813 21.342 3.65788C20.1896 2.50555 18.8448 1.59875 17.3437 0.97097C15.8091 0.326447 14.1797 0 12.5 0H12.4442C10.7534 0.00837043 9.11556 0.343188 7.5754 1.00166C6.08825 1.63781 4.75456 2.54182 3.61339 3.69415C2.47223 4.84648 1.57659 6.18575 0.957178 7.67847C0.315445 9.22421 -0.00821214 10.8676 0.000158292 12.5584C0.00852872 14.4948 0.471693 16.4172 1.33943 18.1359V22.377C1.33943 23.0856 1.9142 23.6604 2.62289 23.6604H6.8667C8.58543 24.5282 10.5078 24.9913 12.4442 24.9997H12.5028C14.1741 24.9997 15.7952 24.676 17.3214 24.0427C18.8141 23.4205 20.1562 22.5276 21.3057 21.3864C22.458 20.2453 23.3648 18.9116 23.9982 17.4244C24.6567 15.8843 24.9915 14.2465 24.9998 12.5556C25.0082 10.8564 24.679 9.20747 24.0289 7.65615ZM19.813 19.877C17.8571 21.8133 15.2622 22.8792 12.5 22.8792H12.4526C10.7701 22.8708 9.09882 22.4523 7.62283 21.6655L7.38846 21.5399H3.45994V17.6114L3.33438 17.377C2.54756 15.901 2.12904 14.2297 2.12067 12.5473C2.10951 9.7655 3.17255 7.15393 5.12286 5.18688C7.07038 3.21983 9.67359 2.13167 12.4554 2.12051H12.5028C13.8979 2.12051 15.2511 2.39115 16.5262 2.92686C17.7706 3.44862 18.8866 4.19917 19.8464 5.15898C20.8035 6.11599 21.5568 7.23484 22.0786 8.47925C22.6199 9.76829 22.8905 11.1355 22.8849 12.5473C22.8682 15.3263 21.7772 17.9295 19.813 19.877Z" fill="#353535"/>
</svg>
